<svg xmlns="http://www.w3.org/2000/svg" viewBox="0 0 150.045 13.889"><defs><style>.cls-1{fill:#fff}.cls-2{fill:#485c5b}</style></defs><g id="bonitabasics-green" transform="translate(0 -.007)"><g id="logo"><path id="Path_1" data-name="Path 1" class="cls-1" d="M0 2.23h6.83a8.36 8.36 0 0 1 4 .73 2.47 2.47 0 0 1 1.23 2.38v.58q0 1.94-2.58 2.32a3.34 3.34 0 0 1 2.23 1 3.32 3.32 0 0 1 .65 2.13 4.28 4.28 0 0 1-1.2 3.29Q10 15.82 6.83 15.81H0zm5.95 5.12a1.16 1.16 0 0 0 .88-.26 1.06 1.06 0 0 0 .23-.73V5q0-.66-1.1-.66h-1v3zm1.43 5.08v-1.7A1.22 1.22 0 0 0 7 9.79a1.73 1.73 0 0 0-1.2-.32h-.88v3.94h.5q2 0 2-1z" transform="translate(0 -2.06)"/><path id="Path_2" data-name="Path 2" class="cls-1" d="M15.41 14.93a3.17 3.17 0 0 1-1.58-2.82V5.65A2.87 2.87 0 0 1 15.41 3 9.6 9.6 0 0 1 20 2.11a9.6 9.6 0 0 1 4.67.89 2.87 2.87 0 0 1 1.58 2.65v6.46a3.16 3.16 0 0 1-1.58 2.83 8.76 8.76 0 0 1-4.63 1 8.71 8.71 0 0 1-4.63-1.01zm5.54-1.83a1.46 1.46 0 0 0 .23-.87V5.6a1.12 1.12 0 0 0-.18-.73 1.1 1.1 0 0 0-.88-.25q-1.26 0-1.26 1v6.61a1.31 1.31 0 0 0 .26.88 1.25 1.25 0 0 0 1 .3 1.07 1.07 0 0 0 .89-.31z" transform="translate(0 -2.06)"/><path id="Path_3" data-name="Path 3" class="cls-1" d="M28.27 15.81V2.23h5.18l2.33 6.5v-6.5h4.86v13.58h-4.93L33.19 9v6.81z" transform="translate(0 -2.06)"/><path id="Path_4" data-name="Path 4" class="cls-1" d="M42.63 15.81V2.23h4.86v13.58z" transform="translate(0 -2.06)"/><path id="Path_5" data-name="Path 5" class="cls-1" d="M51.68 15.81v-11h-3V2.23h11v2.61h-3v11z" transform="translate(0 -2.06)"/><path id="Path_6" data-name="Path 6" class="cls-1" d="M60.44 15.81l2.43-13.58h8.53l2.4 13.58H69l-.37-2.19h-3l-.29 2.19zM66 11.45h2.27l-1.1-6.9H67z" transform="translate(0 -2.06)"/><path id="Path_7" data-name="Path 7" class="cls-2" d="M75.88 2.19h6.83a8.36 8.36 0 0 1 4 .73A2.49 2.49 0 0 1 88 5.29v.6q0 1.94-2.58 2.32a3.34 3.34 0 0 1 2.23 1 3.32 3.32 0 0 1 .65 2.13 4.28 4.28 0 0 1-1.2 3.29q-1.2 1.12-4.33 1.11H75.9zm5.95 5.11a1.16 1.16 0 0 0 .88-.3 1.06 1.06 0 0 0 .23-.73V4.94q0-.66-1.1-.66h-1.05v3zm1.42 5.06v-1.68a1.22 1.22 0 0 0-.34-.93 1.73 1.73 0 0 0-1.19-.32h-.94v4h.5q1.97-.05 1.97-1.06z" transform="translate(0 -2.06)"/><path id="Path_8" data-name="Path 8" class="cls-2" d="M89.24 15.77l2.43-13.58h8.53l2.41 13.58h-4.79l-.37-2.19h-3l-.29 2.19zm5.56-4.37h2.29L96 4.49h-.23z" transform="translate(0 -2.06)"/><path id="Path_9" data-name="Path 9" class="cls-2" d="M105.16 15a3.19 3.19 0 0 1-1.52-3v-1.31h5v1.69q0 1 1.2 1a1.53 1.53 0 0 0 .94-.21.88.88 0 0 0 .26-.73 1.93 1.93 0 0 0-.29-1.1 2.56 2.56 0 0 0-.73-.73q-.46-.29-1.62-.91l-2.17-1.17q-2.52-1.33-2.52-2.94A2.92 2.92 0 0 1 105.13 3a8.23 8.23 0 0 1 4.29-.9 9.31 9.31 0 0 1 4.89 1 3.37 3.37 0 0 1 1.49 3h-5.1v-.93a.48.48 0 0 0-.28-.43 1.59 1.59 0 0 0-.78-.16 1.76 1.76 0 0 0-.88.18.53.53 0 0 0-.29.47q0 .66 1.41 1.38l2.92 1.52a14.69 14.69 0 0 1 1.7 1 4 4 0 0 1 1.1 1.14 2.88 2.88 0 0 1 .41 1.56 3.58 3.58 0 0 1-1.36 3 7.58 7.58 0 0 1-4.5 1 10 10 0 0 1-4.99-.83z" transform="translate(0 -2.06)"/><path id="Path_10" data-name="Path 10" class="cls-2" d="M117.39 15.77V2.19h4.86v13.58z" transform="translate(0 -2.06)"/><path id="Path_11" data-name="Path 11" class="cls-2" d="M125.73 15a2.84 2.84 0 0 1-1.65-2.56v-6.3a3.46 3.46 0 0 1 1.49-3 8.42 8.42 0 0 1 4.69-1 10.36 10.36 0 0 1 4.48.82 2.57 2.57 0 0 1 1.7 2.37v2.26h-5v-2a1 1 0 0 0-.26-.81 1.43 1.43 0 0 0-.91-.22 1.29 1.29 0 0 0-.92.25 1 1 0 0 0-.25.73v6.83a1 1 0 0 0 .29.78 1.34 1.34 0 0 0 .88.24q1.17 0 1.17-1V9.92h5.07v2.56q0 3.41-6.36 3.41a8.92 8.92 0 0 1-4.42-.89z" transform="translate(0 -2.06)"/><path id="Path_12" data-name="Path 12" class="cls-2" d="M139.19 15a3.18 3.18 0 0 1-1.53-3v-1.31h5v1.69q0 1 1.2 1a1.53 1.53 0 0 0 .94-.21.88.88 0 0 0 .26-.73 1.93 1.93 0 0 0-.29-1.1 2.56 2.56 0 0 0-.73-.73q-.46-.29-1.62-.91l-2.17-1.17q-2.54-1.32-2.54-2.93a2.92 2.92 0 0 1 1.42-2.6 8.41 8.41 0 0 1 4.33-.91 9.31 9.31 0 0 1 4.89 1 3.37 3.37 0 0 1 1.49 3h-5.11v-.93a.48.48 0 0 0-.28-.43 1.59 1.59 0 0 0-.78-.16 1.76 1.76 0 0 0-.88.18.53.53 0 0 0-.29.47q0 .66 1.41 1.38l2.92 1.52a14.69 14.69 0 0 1 1.7 1 4 4 0 0 1 1.1 1.14 2.88 2.88 0 0 1 .41 1.56 3.58 3.58 0 0 1-1.36 3 7.58 7.58 0 0 1-4.5 1 10.13 10.13 0 0 1-4.99-.82z" transform="translate(0 -2.06)"/></g></g></svg>