<svg version="1.1" id="Layer_1" xmlns="http://www.w3.org/2000/svg" x="0" y="0" viewBox="0 0 150 18" xml:space="preserve"><g id="Layer_2"><g id="logo"><path d="M0 2.2h6.8c1.8 0 3.2.2 4 .7s1.3 1.3 1.2 2.4v.6c0 1.3-.9 2.1-2.6 2.3 1.1.1 1.8.5 2.2 1 .5.6.7 1.4.6 2.1 0 1.4-.4 2.5-1.2 3.3-.8.7-2.2 1.1-4.3 1.1H0V2.2zm5.9 5.1c.3 0 .6-.1.9-.3.2-.1.3-.4.3-.6V5c0-.4-.4-.7-1.1-.7H5v3h.9zm1.5 5.1v-1.7c0-.3-.1-.7-.3-.9-.4-.3-.8-.4-1.3-.3h-.9v3.9h.5c1.3 0 2-.3 2-1zm8 2.5c-1-.6-1.6-1.7-1.6-2.8V5.6c0-1.1.6-2.1 1.6-2.6 1.1-.6 2.6-.9 4.6-.9s3.6.3 4.6.9c1 .5 1.6 1.5 1.6 2.6v6.5c0 1.2-.6 2.2-1.6 2.8-1.1.7-2.6 1-4.6 1s-3.5-.3-4.6-1zm5.5-1.8c.2-.3.2-.6.2-.9V5.6c0-.3-.1-.5-.2-.7-.2-.2-.6-.3-.9-.3-.8 0-1.3.3-1.3 1v6.6c0 .3.1.6.3.9.3.2.6.3 1 .3.4.1.7 0 .9-.3zm7.4 2.7V2.2h5.2l2.3 6.5V2.2h4.9v13.6h-4.9L33.2 9v6.8h-4.9zm14.3 0V2.2h4.9v13.6h-4.9zm9.1 0v-11h-3V2.2h11v2.6h-3v11h-5zm8.7 0l2.4-13.6h8.5l2.4 13.6H69l-.4-2.2h-3l-.3 2.2h-4.9zm5.6-4.4h2.3l-1.1-6.9H67l-1 6.9z"/><path d="M75.9 2.2h6.8c1.8 0 3.2.2 4 .7S88 4.2 88 5.3v.6c0 1.3-.9 2.1-2.6 2.3 1.1.1 1.8.5 2.2 1 .5.6.7 1.4.6 2.1 0 1.4-.4 2.5-1.2 3.3-.8.7-2.2 1.1-4.3 1.1h-6.8V2.2zm5.9 5.1c.3 0 .6-.1.9-.3.2-.2.2-.5.2-.7V4.9c0-.4-.4-.7-1.1-.7h-1.1v3l1.1.1zm1.5 5.1v-1.7c0-.3-.1-.7-.3-.9-.3-.2-.8-.4-1.2-.3h-.9v4h.5c1.2-.1 1.9-.5 1.9-1.1zm5.9 3.4l2.4-13.6h8.5l2.4 13.6h-4.8l-.4-2.2h-3l-.3 2.2h-4.8zm5.6-4.4h2.3L96 4.5h-.2l-1 6.9zm10.4 3.6c-1-.6-1.5-1.6-1.5-3v-1.3h5v1.7c0 .7.4 1 1.2 1 .3 0 .7 0 .9-.2.2-.2.3-.5.3-.7 0-.4-.1-.8-.3-1.1-.2-.3-.4-.5-.7-.7-.3-.2-.8-.5-1.6-.9l-2.2-1.2c-1.7-.9-2.5-1.9-2.5-2.9 0-1.1.5-2.1 1.5-2.6 1-.6 2.4-.9 4.3-.9 2.3 0 3.9.3 4.9 1 1 .6 1.5 1.7 1.5 3h-5.1v-.9c0-.2-.1-.4-.3-.4-.2-.1-.5-.2-.8-.2s-.6 0-.9.2c-.2.1-.3.3-.3.5 0 .4.5.9 1.4 1.4l2.9 1.5c.6.3 1.2.6 1.7 1 .4.3.8.7 1.1 1.1.3.5.4 1 .4 1.6 0 1.3-.5 2.4-1.4 3-.9.7-2.4 1-4.5 1-2.4-.1-4-.4-5-1zm12.2.8V2.2h4.9v13.6h-4.9zm8.3-.8c-1.1-.6-1.7-1.5-1.7-2.6V6.1c-.1-1.2.5-2.4 1.5-3 1-.7 2.6-1 4.7-1 1.9 0 3.3.3 4.5.8s1.7 1.3 1.7 2.4v2.3h-5v-2c0-.3-.1-.6-.3-.8-.3-.2-.6-.3-.9-.2-.3 0-.7.1-.9.3-.2.2-.3.5-.2.7v6.8c0 .3.1.6.3.8.3.2.6.3.9.2.8 0 1.2-.3 1.2-1V9.9h5.1v2.6c0 2.3-2.1 3.4-6.4 3.4-1.9 0-3.4-.3-4.5-.9zm13.5 0c-1-.6-1.5-1.6-1.5-3v-1.3h5v1.7c0 .7.4 1 1.2 1 .3 0 .7 0 .9-.2s.3-.5.3-.7c0-.4-.1-.8-.3-1.1s-.4-.5-.7-.7-.8-.5-1.6-.9l-2.2-1.2c-1.7-.9-2.5-1.9-2.5-2.9 0-1.1.5-2.1 1.5-2.6 1-.6 2.4-.9 4.3-.9 2.3 0 3.9.3 4.9 1s1.5 1.7 1.5 3h-5.1v-.9c0-.2-.1-.4-.3-.4-.2-.1-.5-.2-.8-.2s-.6 0-.9.2c-.2.1-.3.3-.3.5 0 .4.5.9 1.4 1.4l2.9 1.5c.6.3 1.2.6 1.7 1 .4.3.8.7 1.1 1.1.3.5.4 1 .4 1.6 0 1.3-.5 2.4-1.4 3s-2.4 1-4.5 1c-2.3-.1-4-.4-5-1z" fill="#bababa"/></g></g></svg>