<?xml version="1.0" encoding="utf-8"?>
<!-- Generator: Adobe Illustrator 21.1.0, SVG Export Plug-In . SVG Version: 6.00 Build 0)  -->
<svg version="1.1" id="Layer_1" xmlns="http://www.w3.org/2000/svg" xmlns:xlink="http://www.w3.org/1999/xlink" x="0px" y="0px"
	 viewBox="0 0 150 18" style="enable-background:new 0 0 150 18;" xml:space="preserve">
<style type="text/css">
	.st0{fill:#BABABA;}
</style>
<title>Asset 5</title>
<g id="Layer_2">
	<g id="logo">
		<path d="M0,2.2h6.8c1.8,0,3.2,0.2,4,0.7s1.3,1.3,1.2,2.4v0.6c0,1.3-0.9,2.1-2.6,2.3c1.1,0.1,1.8,0.5,2.2,1
			c0.5,0.6,0.7,1.4,0.6,2.1c0,1.4-0.4,2.5-1.2,3.3c-0.8,0.7-2.2,1.1-4.3,1.1H0V2.2z M5.9,7.3c0.3,0,0.6-0.1,0.9-0.3
			C7,6.9,7.1,6.6,7.1,6.4V5c0-0.4-0.4-0.7-1.1-0.7H5v3H5.9z M7.4,12.4v-1.7c0-0.3-0.1-0.7-0.3-0.9C6.7,9.5,6.3,9.4,5.8,9.5H4.9v3.9
			h0.5C6.7,13.4,7.4,13.1,7.4,12.4L7.4,12.4z"/>
		<path d="M15.4,14.9c-1-0.6-1.6-1.7-1.6-2.8V5.6c0-1.1,0.6-2.1,1.6-2.6C16.5,2.4,18,2.1,20,2.1s3.6,0.3,4.6,0.9
			c1,0.5,1.6,1.5,1.6,2.6v6.5c0,1.2-0.6,2.2-1.6,2.8c-1.1,0.7-2.6,1-4.6,1S16.5,15.6,15.4,14.9z M20.9,13.1c0.2-0.3,0.2-0.6,0.2-0.9
			V5.6c0-0.3-0.1-0.5-0.2-0.7c-0.2-0.2-0.6-0.3-0.9-0.3c-0.8,0-1.3,0.3-1.3,1v6.6c0,0.3,0.1,0.6,0.3,0.9c0.3,0.2,0.6,0.3,1,0.3
			C20.4,13.5,20.7,13.4,20.9,13.1L20.9,13.1z"/>
		<path d="M28.3,15.8V2.2h5.2l2.3,6.5V2.2h4.9v13.6h-4.9L33.2,9v6.8H28.3z"/>
		<path d="M42.6,15.8V2.2h4.9v13.6H42.6z"/>
		<path d="M51.7,15.8v-11h-3V2.2h11v2.6h-3v11H51.7z"/>
		<path d="M60.4,15.8l2.4-13.6h8.5l2.4,13.6H69l-0.4-2.2h-3l-0.3,2.2H60.4z M66,11.4h2.3l-1.1-6.9H67L66,11.4z"/>
		<path class="st0" d="M75.9,2.2h6.8c1.8,0,3.2,0.2,4,0.7S88,4.2,88,5.3v0.6c0,1.3-0.9,2.1-2.6,2.3c1.1,0.1,1.8,0.5,2.2,1
			c0.5,0.6,0.7,1.4,0.6,2.1c0,1.4-0.4,2.5-1.2,3.3c-0.8,0.7-2.2,1.1-4.3,1.1h-6.8L75.9,2.2z M81.8,7.3c0.3,0,0.6-0.1,0.9-0.3
			c0.2-0.2,0.2-0.5,0.2-0.7V4.9c0-0.4-0.4-0.7-1.1-0.7h-1.1v3L81.8,7.3z M83.3,12.4v-1.7c0-0.3-0.1-0.7-0.3-0.9
			c-0.3-0.2-0.8-0.4-1.2-0.3h-0.9v4h0.5C82.6,13.4,83.3,13,83.3,12.4z"/>
		<path class="st0" d="M89.2,15.8l2.4-13.6h8.5l2.4,13.6h-4.8l-0.4-2.2h-3L94,15.8H89.2z M94.8,11.4h2.3L96,4.5h-0.2L94.8,11.4z"/>
		<path class="st0" d="M105.2,15c-1-0.6-1.5-1.6-1.5-3v-1.3h5v1.7c0,0.7,0.4,1,1.2,1c0.3,0,0.7,0,0.9-0.2c0.2-0.2,0.3-0.5,0.3-0.7
			c0-0.4-0.1-0.8-0.3-1.1c-0.2-0.3-0.4-0.5-0.7-0.7c-0.3-0.2-0.8-0.5-1.6-0.9l-2.2-1.2c-1.7-0.9-2.5-1.9-2.5-2.9
			c0-1.1,0.5-2.1,1.5-2.6c1-0.6,2.4-0.9,4.3-0.9c2.3,0,3.9,0.3,4.9,1c1,0.6,1.5,1.7,1.5,3h-5.1V5.3c0-0.2-0.1-0.4-0.3-0.4
			c-0.2-0.1-0.5-0.2-0.8-0.2s-0.6,0-0.9,0.2c-0.2,0.1-0.3,0.3-0.3,0.5c0,0.4,0.5,0.9,1.4,1.4l2.9,1.5c0.6,0.3,1.2,0.6,1.7,1
			c0.4,0.3,0.8,0.7,1.1,1.1c0.3,0.5,0.4,1,0.4,1.6c0,1.3-0.5,2.4-1.4,3c-0.9,0.7-2.4,1-4.5,1C107.8,15.9,106.2,15.6,105.2,15z"/>
		<path class="st0" d="M117.4,15.8V2.2h4.9v13.6H117.4z"/>
		<path class="st0" d="M125.7,15c-1.1-0.6-1.7-1.5-1.7-2.6V6.1c-0.1-1.2,0.5-2.4,1.5-3c1-0.7,2.6-1,4.7-1c1.9,0,3.3,0.3,4.5,0.8
			s1.7,1.3,1.7,2.4v2.3h-5v-2c0-0.3-0.1-0.6-0.3-0.8c-0.3-0.2-0.6-0.3-0.9-0.2c-0.3,0-0.7,0.1-0.9,0.3c-0.2,0.2-0.3,0.5-0.2,0.7v6.8
			c0,0.3,0.1,0.6,0.3,0.8c0.3,0.2,0.6,0.3,0.9,0.2c0.8,0,1.2-0.3,1.2-1V9.9h5.1v2.6c0,2.3-2.1,3.4-6.4,3.4
			C128.3,15.9,126.8,15.6,125.7,15z"/>
		<path class="st0" d="M139.2,15c-1-0.6-1.5-1.6-1.5-3v-1.3h5v1.7c0,0.7,0.4,1,1.2,1c0.3,0,0.7,0,0.9-0.2s0.3-0.5,0.3-0.7
			c0-0.4-0.1-0.8-0.3-1.1s-0.4-0.5-0.7-0.7s-0.8-0.5-1.6-0.9l-2.2-1.2c-1.7-0.9-2.5-1.9-2.5-2.9c0-1.1,0.5-2.1,1.5-2.6
			c1-0.6,2.4-0.9,4.3-0.9c2.3,0,3.9,0.3,4.9,1s1.5,1.7,1.5,3h-5.1V5.3c0-0.2-0.1-0.4-0.3-0.4c-0.2-0.1-0.5-0.2-0.8-0.2
			s-0.6,0-0.9,0.2c-0.2,0.1-0.3,0.3-0.3,0.5c0,0.4,0.5,0.9,1.4,1.4l2.9,1.5c0.6,0.3,1.2,0.6,1.7,1c0.4,0.3,0.8,0.7,1.1,1.1
			c0.3,0.5,0.4,1,0.4,1.6c0,1.3-0.5,2.4-1.4,3s-2.4,1-4.5,1C141.9,15.9,140.2,15.6,139.2,15z"/>
	</g>
</g>
</svg>
