<svg id="Layer_1" data-name="Layer 1" xmlns="http://www.w3.org/2000/svg" viewBox="0 0 150.02 13.88"><defs><style>.cls-1{fill:#485c5b;}</style></defs><title>bonitabasics-green</title><g id="Layer_2" data-name="Layer 2"><g id="logo"><path d="M0,2.23H6.83a8.36,8.36,0,0,1,4,.73,2.47,2.47,0,0,1,1.23,2.38v.58q0,1.94-2.58,2.32a3.34,3.34,0,0,1,2.23,1,3.32,3.32,0,0,1,.65,2.13,4.28,4.28,0,0,1-1.2,3.29Q10,15.82,6.83,15.81H0ZM5.95,7.35a1.16,1.16,0,0,0,.88-.26,1.06,1.06,0,0,0,.23-.73V5q0-.66-1.1-.66h-1v3Zm1.43,5.08v-1.7A1.22,1.22,0,0,0,7,9.79a1.73,1.73,0,0,0-1.2-.32H4.92v3.94h.5q2,0,2-1Z" transform="translate(0 -2.06)"/><path d="M15.41,14.93a3.17,3.17,0,0,1-1.58-2.82V5.65A2.87,2.87,0,0,1,15.41,3,9.6,9.6,0,0,1,20,2.11,9.6,9.6,0,0,1,24.67,3a2.87,2.87,0,0,1,1.58,2.65v6.46a3.16,3.16,0,0,1-1.58,2.83,8.76,8.76,0,0,1-4.63,1A8.71,8.71,0,0,1,15.41,14.93Zm5.54-1.83a1.46,1.46,0,0,0,.23-.87V5.6A1.12,1.12,0,0,0,21,4.87a1.1,1.1,0,0,0-.88-.25q-1.26,0-1.26,1v6.61a1.31,1.31,0,0,0,.26.88,1.25,1.25,0,0,0,1,.3,1.07,1.07,0,0,0,.89-.31Z" transform="translate(0 -2.06)"/><path d="M28.27,15.81V2.23h5.18l2.33,6.5V2.23h4.86V15.81H35.71L33.19,9v6.81Z" transform="translate(0 -2.06)"/><path d="M42.63,15.81V2.23h4.86V15.81Z" transform="translate(0 -2.06)"/><path d="M51.68,15.81v-11h-3V2.23h11V4.84h-3v11Z" transform="translate(0 -2.06)"/><path d="M60.44,15.81,62.87,2.23h8.53l2.4,13.58H69l-.37-2.19h-3l-.29,2.19ZM66,11.45h2.27l-1.1-6.9H67Z" transform="translate(0 -2.06)"/><path class="cls-1" d="M75.88,2.19h6.83a8.36,8.36,0,0,1,4,.73A2.49,2.49,0,0,1,88,5.29v.6q0,1.94-2.58,2.32a3.34,3.34,0,0,1,2.23,1,3.32,3.32,0,0,1,.65,2.13,4.28,4.28,0,0,1-1.2,3.29q-1.2,1.12-4.33,1.11H75.9ZM81.83,7.3A1.16,1.16,0,0,0,82.71,7a1.06,1.06,0,0,0,.23-.73V4.94q0-.66-1.1-.66H80.79v3Zm1.42,5.06V10.68a1.22,1.22,0,0,0-.34-.93,1.73,1.73,0,0,0-1.19-.32h-.94v4h.5Q83.25,13.38,83.25,12.37Z" transform="translate(0 -2.06)"/><path class="cls-1" d="M89.24,15.77,91.67,2.19h8.53l2.41,13.58H97.82l-.37-2.19h-3l-.29,2.19ZM94.8,11.4h2.29L96,4.49h-.23Z" transform="translate(0 -2.06)"/><path class="cls-1" d="M105.16,15a3.19,3.19,0,0,1-1.52-3V10.69h5v1.69q0,1,1.2,1a1.53,1.53,0,0,0,.94-.21.88.88,0,0,0,.26-.73,1.93,1.93,0,0,0-.29-1.1,2.56,2.56,0,0,0-.73-.73q-.46-.29-1.62-.91l-2.17-1.17q-2.52-1.33-2.52-2.94A2.92,2.92,0,0,1,105.13,3a8.23,8.23,0,0,1,4.29-.9,9.31,9.31,0,0,1,4.89,1,3.37,3.37,0,0,1,1.49,3H110.7l0-.93a.48.48,0,0,0-.28-.43,1.59,1.59,0,0,0-.78-.16,1.76,1.76,0,0,0-.88.18.53.53,0,0,0-.29.47q0,.66,1.41,1.38l2.92,1.52a14.69,14.69,0,0,1,1.7,1,4,4,0,0,1,1.1,1.14,2.88,2.88,0,0,1,.41,1.56,3.58,3.58,0,0,1-1.36,3,7.58,7.58,0,0,1-4.5,1A10,10,0,0,1,105.16,15Z" transform="translate(0 -2.06)"/><path class="cls-1" d="M117.39,15.77V2.19h4.86V15.77Z" transform="translate(0 -2.06)"/><path class="cls-1" d="M125.73,15a2.84,2.84,0,0,1-1.65-2.56V6.14a3.46,3.46,0,0,1,1.49-3,8.42,8.42,0,0,1,4.69-1,10.36,10.36,0,0,1,4.48.82,2.57,2.57,0,0,1,1.7,2.37V7.59h-5v-2a1,1,0,0,0-.26-.81,1.43,1.43,0,0,0-.91-.22,1.29,1.29,0,0,0-.92.25,1,1,0,0,0-.25.73v6.83a1,1,0,0,0,.29.78,1.34,1.34,0,0,0,.88.24q1.17,0,1.17-1V9.92h5.07v2.56q0,3.41-6.36,3.41A8.92,8.92,0,0,1,125.73,15Z" transform="translate(0 -2.06)"/><path class="cls-1" d="M139.19,15a3.18,3.18,0,0,1-1.53-3V10.69h5v1.69q0,1,1.2,1a1.53,1.53,0,0,0,.94-.21.88.88,0,0,0,.26-.73,1.93,1.93,0,0,0-.29-1.1,2.56,2.56,0,0,0-.73-.73q-.46-.29-1.62-.91l-2.17-1.17q-2.54-1.32-2.54-2.93A2.92,2.92,0,0,1,139.13,3a8.41,8.41,0,0,1,4.33-.91,9.31,9.31,0,0,1,4.89,1,3.37,3.37,0,0,1,1.49,3h-5.11l0-.93a.48.48,0,0,0-.28-.43,1.59,1.59,0,0,0-.78-.16,1.76,1.76,0,0,0-.88.18.53.53,0,0,0-.29.47q0,.66,1.41,1.38l2.92,1.52a14.69,14.69,0,0,1,1.7,1,4,4,0,0,1,1.1,1.14,2.88,2.88,0,0,1,.41,1.56,3.58,3.58,0,0,1-1.36,3,7.58,7.58,0,0,1-4.5,1A10.13,10.13,0,0,1,139.19,15Z" transform="translate(0 -2.06)"/></g></g></svg>