<svg width="150" height="18" xmlns="http://www.w3.org/2000/svg" viewBox="0 0 410.81 38"><defs><style>.cls-1{fill:#ccc;}</style></defs><title>Asset 5</title><g id="Layer_2" data-name="Layer 2"><g id="logo"><path d="M0,.47H18.7q7.54,0,11,2T33.06,9V10.6q0,5.32-7.06,6.36,4.33.61,6.1,2.81a9.09,9.09,0,0,1,1.77,5.84q0,5.93-3.29,9T18.7,37.65H0Zm16.29,14a3.18,3.18,0,0,0,2.41-.71,2.91,2.91,0,0,0,.64-2V8q0-1.82-3-1.82H13.48v8.27Zm3.93,13.9V23.71a3.34,3.34,0,0,0-.92-2.55A4.75,4.75,0,0,0,16,20.29H13.48V31.07l1.36,0Q20.22,31.12,20.22,28.35Z"/><path d="M42.2,35.25a8.67,8.67,0,0,1-4.33-7.73V9.82A7.85,7.85,0,0,1,42.2,2.57Q46.54.12,54.88.12T67.56,2.57a7.85,7.85,0,0,1,4.33,7.25V27.52a8.65,8.65,0,0,1-4.33,7.75Q63.23,38,54.88,38T42.2,35.25Zm15.16-5A4,4,0,0,0,58,27.87V9.69a3.07,3.07,0,0,0-.6-2A3,3,0,0,0,55,7q-3.45,0-3.45,2.81V27.91a3.58,3.58,0,0,0,.72,2.42,3.42,3.42,0,0,0,2.65.82A2.94,2.94,0,0,0,57.37,30.29Z"/><path d="M77.43,37.65V.47h14.2L98,18.26V.47h13.32V37.65H97.81L90.91,19V37.65Z"/><path d="M116.74,37.65V.47h13.32V37.65Z"/><path d="M141.53,37.65v-30h-8.18V.47h30.17V7.61h-8.18v30Z"/><path d="M165.53,37.65,172.18.47h23.35l6.58,37.19H189l-1-6h-8.34l-.8,6Zm15.24-11.95H187L184,6.79h-.64Z"/><path class="cls-1" d="M207.81.35h18.7q7.54,0,11,2t3.41,6.49v1.65q0,5.32-7.06,6.36,4.33.61,6.1,2.81a9.09,9.09,0,0,1,1.77,5.84q0,5.93-3.29,9t-11.87,3.05h-18.7Zm16.29,14a3.18,3.18,0,0,0,2.41-.71,2.91,2.91,0,0,0,.64-2V7.88q0-1.82-3-1.82h-2.89v8.27ZM228,28.22V23.59a3.34,3.34,0,0,0-.92-2.55,4.75,4.75,0,0,0-3.25-.87h-2.57V31l1.36,0Q228,31,228,28.22Z"/><path class="cls-1" d="M244.4,37.53,251.06.35h23.35L281,37.53H267.91l-1-6H258.6l-.8,6Zm15.24-11.95h6.26l-3-18.92h-.64Z"/><path class="cls-1" d="M288,35.37q-4.17-2.51-4.17-8.09V23.64h13.56v4.63q0,2.77,3.29,2.77a4.2,4.2,0,0,0,2.57-.58,2.4,2.4,0,0,0,.72-2,5.28,5.28,0,0,0-.8-3,7,7,0,0,0-2-2q-1.25-.8-4.45-2.49l-5.94-3.2q-6.9-3.64-6.9-8.05a8,8,0,0,1,4.05-7.25Q291.9,0,299.68,0q9.31,0,13.4,2.66T317.17,11h-14l-.08-2.55a1.31,1.31,0,0,0-.76-1.17,4.35,4.35,0,0,0-2.13-.43,4.82,4.82,0,0,0-2.41.48,1.45,1.45,0,0,0-.8,1.3q0,1.82,3.85,3.77l8,4.16a40.24,40.24,0,0,1,4.65,2.79,11,11,0,0,1,3,3.12,7.88,7.88,0,0,1,1.12,4.26q0,5.5-3.73,8.33t-12.32,2.84Q292.14,37.88,288,35.37Z"/><path class="cls-1" d="M321.51,37.53V.35h13.32V37.53Z"/><path class="cls-1" d="M344.33,35.32q-4.53-2.55-4.53-7V11.17a9.48,9.48,0,0,1,4.09-8.35Q348,0,356.73,0,364.35,0,369,2.25t4.65,6.49v6.41H359.94V9.65a2.78,2.78,0,0,0-.72-2.21,3.92,3.92,0,0,0-2.49-.61,3.54,3.54,0,0,0-2.53.69,2.78,2.78,0,0,0-.68,2V28.22a2.64,2.64,0,0,0,.8,2.14,3.68,3.68,0,0,0,2.41.67q3.21,0,3.21-2.81V21.51h13.88v7q0,9.35-17.41,9.35Q348.87,37.88,344.33,35.32Z"/><path class="cls-1" d="M381.2,35.37Q377,32.86,377,27.27V23.64h13.56v4.63q0,2.77,3.29,2.77a4.2,4.2,0,0,0,2.57-.58,2.4,2.4,0,0,0,.72-2,5.28,5.28,0,0,0-.8-3,7,7,0,0,0-2-2q-1.25-.8-4.45-2.49l-5.94-3.2Q377,14.16,377,9.74a8,8,0,0,1,4.05-7.25Q385.13,0,392.92,0q9.31,0,13.4,2.66T410.41,11h-14l-.08-2.55a1.31,1.31,0,0,0-.76-1.17,4.35,4.35,0,0,0-2.13-.43,4.82,4.82,0,0,0-2.41.48,1.45,1.45,0,0,0-.8,1.3q0,1.82,3.85,3.77l8,4.16a40.24,40.24,0,0,1,4.65,2.79,11,11,0,0,1,3,3.12,7.88,7.88,0,0,1,1.12,4.26q0,5.5-3.73,8.33t-12.32,2.84Q385.38,37.88,381.2,35.37Z"/></g></g></svg>