<?xml version="1.0" encoding="iso-8859-1"?>
<!-- Generator: Adobe Illustrator 16.0.0, SVG Export Plug-In . SVG Version: 6.00 Build 0)  -->
<!DOCTYPE svg PUBLIC "-//W3C//DTD SVG 1.1//EN" "http://www.w3.org/Graphics/SVG/1.1/DTD/svg11.dtd">
<svg version="1.1" id="Capa_1" xmlns="http://www.w3.org/2000/svg" xmlns:xlink="http://www.w3.org/1999/xlink" x="0px" y="0px"
	 width="506.812px" height="506.813px" viewBox="0 0 506.812 506.813" style="enable-background:new 0 0 506.812 506.813;"
	 xml:space="preserve">
<g>
	<g>
		<path d="M482.906,261.797V118.36c0-10.557-8.568-19.125-19.125-19.125H139.316l-10.92-31.69
			c-3.328-9.649-12.402-16.123-22.605-16.123H23.906C10.7,51.422,0,62.123,0,75.329s10.7,23.906,23.906,23.906H88.74l56.275,163.318
			l1.626,5.077c0.086,0.277,0.287,0.497,0.392,0.774l28.419,82.467c3.318,9.64,12.403,16.113,22.596,16.113h284.857
			c13.206,0,23.906-10.7,23.906-23.906s-10.7-23.906-23.906-23.906H215.099l-13.177-38.25h261.859
			C474.338,280.922,482.906,272.354,482.906,261.797z M176.906,208.333l-4.638-13.474h4.638V208.333z M176.906,185.297h-7.937
			l-16.476-47.812h24.413V185.297z M215.156,242.672h-26.421l-2.266-6.588V194.86h28.688V242.672z M215.156,185.297h-28.688v-47.812
			h28.688V185.297z M253.406,242.672h-28.688V194.86h28.688V242.672z M253.406,185.297h-28.688v-47.812h28.688V185.297z
			 M291.656,242.672h-28.688V194.86h28.688V242.672z M291.656,185.297h-28.688v-47.812h28.688V185.297z M329.906,242.672h-28.688
			V194.86h28.688V242.672z M329.906,185.297h-28.688v-47.812h28.688V185.297z M368.156,242.672h-28.688V194.86h28.688V242.672z
			 M368.156,185.297h-28.688v-47.812h28.688V185.297z M406.406,242.672h-28.688V194.86h28.688V242.672z M406.406,185.297h-28.688
			v-47.812h28.688V185.297z M444.656,242.672h-28.688V194.86h28.688V242.672z M444.656,185.297h-28.688v-47.812h28.688V185.297z"/>
		<circle cx="253.081" cy="418.488" r="36.902"/>
		<circle cx="435.237" cy="418.488" r="36.902"/>
	</g>
</g>
<g>
</g>
<g>
</g>
<g>
</g>
<g>
</g>
<g>
</g>
<g>
</g>
<g>
</g>
<g>
</g>
<g>
</g>
<g>
</g>
<g>
</g>
<g>
</g>
<g>
</g>
<g>
</g>
<g>
</g>
</svg>
